<svg id="Capa_1" enable-background="new 0 0 512 512" height="512" viewBox="0 0 512 512" width="512" xmlns="http://www.w3.org/2000/svg" xmlns:xlink="http://www.w3.org/1999/xlink"><linearGradient id="SVGID_1_" gradientUnits="userSpaceOnUse" x1="256" x2="256" y1="512" y2="0"><stop offset="0" stop-color="#ffc2cc"/><stop offset="1" stop-color="#fff2f4"/></linearGradient><linearGradient id="SVGID_2_" gradientUnits="userSpaceOnUse" x1="256" x2="256" y1="407" y2="105"><stop offset="0" stop-color="#ffa68d"/><stop offset="1" stop-color="#fd3a84"/></linearGradient><g><g><circle cx="256" cy="256" fill="url(#SVGID_1_)" r="256"/></g><g><g><path d="m193.823 353.706h124.353v-53.294h-124.353zm137.677-202.394c-9.878-5.687-20.792-9.094-31.932-10.246-3.922-20.503-21.931-36.066-43.568-36.066s-39.646 15.563-43.568 36.066c-11.14 1.152-22.051 4.556-31.915 10.237-24.669 14.182-39.988 40.682-39.988 69.168v177.647c0 4.91 3.973 8.882 8.882 8.882h213.176c4.91 0 8.882-3.973 8.882-8.882v-177.647c.002-28.487-15.317-54.986-39.969-69.159zm-75.5-28.547c11.565 0 21.332 7.448 25.011 17.765h-50.022c3.679-10.318 13.446-17.765 25.011-17.765zm79.941 239.823c0 4.91-3.973 8.882-8.882 8.882h-142.118c-4.91 0-8.882-3.973-8.882-8.882v-71.059c0-4.91 3.973-8.882 8.882-8.882h142.118c4.91 0 8.882 3.973 8.882 8.882zm-115.47-115.47c-4.91 0-8.882-3.973-8.882-8.882s3.973-8.882 8.882-8.882h71.059c4.91 0 8.882 3.973 8.882 8.882v17.764c0 4.91-3.973 8.882-8.882 8.882s-8.882-3.973-8.882-8.882v-8.882zm115.47 8.882c0 4.91-3.973 8.882-8.882 8.882s-8.882-3.973-8.882-8.882v-35.529c0-14.694-11.953-26.647-26.647-26.647h-71.059c-14.694 0-26.647 11.953-26.647 26.647v35.529c0 4.91-3.973 8.882-8.882 8.882-4.91 0-8.882-3.973-8.882-8.882v-35.529c0-24.487 19.916-44.412 44.412-44.412h71.059c24.496 0 44.412 19.925 44.412 44.412v35.529zm-164.271-120.103c7.008-4.034 14.472-7.09 22.154-9.288v-12.727c0-4.91-3.973-8.882-8.882-8.882h-35.529c-4.91 0-8.882 3.973-8.882 8.882v50.822c8.079-11.581 18.534-21.558 31.139-28.807zm190.918-30.897h-35.529c-4.91 0-8.882 3.973-8.882 8.882v12.726c7.693 2.2 15.169 5.263 22.188 9.306 12.586 7.239 23.031 17.208 31.106 28.783v-50.815c0-4.909-3.973-8.882-8.883-8.882zm-239.823 201.871c-8.589 14.107-17.765 30.255-17.765 55.717 0 18.413 8.024 29.603 17.832 36.199-.005-.228-.067-.44-.067-.67zm266.47 0v91.247c0 .23-.062.442-.067.67 9.808-6.597 17.832-17.786 17.832-36.199 0-25.463-9.176-41.611-17.765-55.718z" fill="url(#SVGID_2_)"/></g></g></g></svg>