<svg id="bold" enable-background="new 0 0 32 32" height="512" viewBox="0 0 32 32" width="512" xmlns="http://www.w3.org/2000/svg"><path d="m26 32h-20c-3.314 0-6-2.686-6-6v-20c0-3.314 2.686-6 6-6h20c3.314 0 6 2.686 6 6v20c0 3.314-2.686 6-6 6z" fill="#f5e6fe"/><g fill="#d9a4fc"><path d="m14.167 16c-.276 0-.5-.224-.5-.5v-3c0-.276.224-.5.5-.5s.5.224.5.5v3c0 .276-.224.5-.5.5z"/><path d="m12.166 16h-1.666c-.276 0-.5-.224-.5-.5v-3c0-.276.224-.5.5-.5s.5.224.5.5v2.5h1.167c.276 0 .5.224.5.5s-.224.5-.501.5z"/><path d="m17 16c-.225 0-.422-.15-.482-.366l-.833-3c-.074-.266.082-.542.348-.616.268-.075.542.082.616.348l.351 1.266.352-1.266c.074-.266.349-.423.616-.348.266.074.422.35.348.616l-.833 3c-.061.216-.258.366-.483.366z"/><path d="m21.5 14.5c.276 0 .5-.224.5-.5s-.224-.5-.5-.5h-1.167v-.5h1.167c.276 0 .5-.224.5-.5s-.224-.5-.5-.5h-1.333c-.46 0-.833.374-.833.833v2.333c0 .46.374.833.833.833h1.333c.276 0 .5-.224.5-.5s-.224-.499-.5-.499h-1.167v-.5z"/></g><path d="m22.834 9.333h-13.668c-.643 0-1.166.524-1.166 1.167v9c0 .643.523 1.167 1.167 1.167h5.106c-.078.334-.286.876-.841 1.431-.095.095-.124.239-.072.363.051.125.173.206.308.206h4.667c.135 0 .257-.081.308-.206s.023-.268-.072-.363c-.554-.554-.767-1.096-.85-1.431h5.114c.643 0 1.167-.523 1.167-1.167v-9c-.002-.643-.525-1.167-1.168-1.167zm-.167 8.667h-13.334v-7.333h13.334z" fill="#be63f9"/></svg>