<svg id="Capa_1" enable-background="new 0 0 512 512" height="512" viewBox="0 0 512 512" width="512" xmlns="http://www.w3.org/2000/svg" xmlns:xlink="http://www.w3.org/1999/xlink"><linearGradient id="SVGID_1_" gradientUnits="userSpaceOnUse" x1="256" x2="256" y1="512" y2="0"><stop offset="0" stop-color="#ffc2cc"/><stop offset="1" stop-color="#fff2f4"/></linearGradient><linearGradient id="SVGID_2_" gradientUnits="userSpaceOnUse" x1="256" x2="256" y1="378.5" y2="133.5"><stop offset="0" stop-color="#ffa68d"/><stop offset="1" stop-color="#fd3a84"/></linearGradient><g><g><circle cx="256" cy="256" fill="url(#SVGID_1_)" r="256"/></g><g><g><path d="m233.083 223.154c-16.966 0-30.348 8.883-39.468 22.964-7.355-11.009-19.942-22.964-39.936-22.964-27.749 0-48.679 22.366-48.679 52.022 0 36.901 33.991 59.14 82.465 101.149 3.338 2.901 8.305 2.9 11.641 0 46.971-40.735 82.474-63.467 82.474-101.149 0-29.171-21.304-52.022-48.497-52.022zm116.355-89.654c-23.585 0-39.606 12.873-48.888 25.591-9.073-12.726-24.86-25.591-48.454-25.591-32.277 0-57.562 27.056-57.562 61.601 0 7.418 1.388 14.351 3.842 21.074 10.32-6.999 21.202-10.775 34.706-10.775 37.16 0 66.262 30.653 66.262 69.776 0 12.084-2.554 22.537-6.805 31.653.809.699 1.564 1.302 2.381 2.017 3.353 2.917 8.317 2.923 11.667.026 14.651-12.709 28.234-23.345 40.213-32.734 36.251-28.417 60.2-47.185 60.2-81.037 0-34.545-25.285-61.601-57.562-61.601z" fill="url(#SVGID_2_)"/></g></g></g></svg>