<svg enable-background="new 0 0 32 32" height="512" viewBox="0 0 32 32" width="512" xmlns="http://www.w3.org/2000/svg"><g id="BG"><path d="m26 32h-20c-3.314 0-6-2.686-6-6v-20c0-3.314 2.686-6 6-6h20c3.314 0 6 2.686 6 6v20c0 3.314-2.686 6-6 6z" fill="#fff9dd"/></g><g id="bold"><path d="m15.489 15.739-6 7.167c-.236.282-.199.703.083.939s.703.199.939-.083l6-7.167c.236-.282.199-.703-.083-.939-.282-.237-.703-.2-.939.083z" fill="#ffe777"/><path d="m22.511 22.905-6-7.167c-.236-.282-.657-.32-.939-.083-.282.236-.32.657-.083.939l6 7.167c.236.282.657.32.939.083.282-.236.32-.656.083-.939z" fill="#ffe777"/><g fill="#ffd200"><path d="m15.333 16.167v7.167c0 .368.299.666.667.666s.667-.298.667-.667v-7.167c0-.368-.298-.667-.667-.667-.368.001-.667.299-.667.668z"/><path d="m14.333 11.667c0-.92.747-1.667 1.667-1.667s1.667.747 1.667 1.667-.747 1.666-1.667 1.666-1.667-.746-1.667-1.666zm2.718 4.972c.538-.095.949-.574.949-1.139v-.833h.833c.64 0 1.167-.527 1.167-1.167v-3c0-.64-.527-1.167-1.167-1.167h-.5l-.133-.066-.6-.8c-.22-.294-.567-.467-.933-.467h-1.333c-.367 0-.714.173-.934.467l-.6.8-.133.067h-.5c-.64-.001-1.167.526-1.167 1.166v3c0 .64.527 1.167 1.167 1.167h.833v.833c0 .565.411 1.044.949 1.139z"/></g></g></svg>