<svg id="bold" enable-background="new 0 0 24 24" height="512" viewBox="0 0 24 24" width="512" xmlns="http://www.w3.org/2000/svg"><path d="m21 1h-18c-1.654 0-3 1.346-3 3v6.37c0 2.002 1.629 3.63 3.631 3.63 1.073 0 2.029-.477 2.694-1.22.706.747 1.699 1.22 2.806 1.22 1.143 0 2.16-.507 2.869-1.297.709.79 1.726 1.297 2.869 1.297 1.107 0 2.1-.473 2.806-1.22.665.743 1.621 1.22 2.694 1.22 2.002 0 3.631-1.628 3.631-3.63v-6.37c0-1.654-1.346-3-3-3zm-15.739 9.13v.239c0 .899-.731 1.63-1.63 1.63-.9.001-1.631-.73-1.631-1.629v-3.37h3.261zm5.739 0c0 1.031-.839 1.87-1.869 1.87-1.031 0-1.87-.839-1.87-1.87v-3.13h3.739zm5.739 0c0 1.031-.839 1.87-1.87 1.87-1.03 0-1.869-.839-1.869-1.87v-3.13h3.739zm5.261.24c0 .899-.731 1.63-1.631 1.63-.898 0-1.63-.731-1.63-1.63v-.24-3.13h3.261z"/><path d="m22 15.757v4.243c0 .552-.449 1-1 1h-18c-.551 0-1-.448-1-1v-4.243c-.743-.226-1.421-.601-2-1.091v5.334c0 1.654 1.346 3 3 3h18c1.654 0 3-1.346 3-3v-5.334c-.579.49-1.257.866-2 1.091z"/></svg>