<svg id="Capa_1" enable-background="new 0 0 497 497" height="512" viewBox="0 0 497 497" width="512" xmlns="http://www.w3.org/2000/svg"><g><g><path d="m80 246.615-80-49.1 213.11-164.52c21.71-16.76 52.01-16.67 73.61.21l210.28 165.31-80 49.44z" fill="#faa515"/></g><path d="m427 75.515v162.44l-136.73 77.03-3.55-2.78c-21.6-16.88-51.9-16.97-73.61-.21l-3.43 2.65-139.68-78.03v-161.1c0-2.761 2.239-5 5-5h347c2.761 0 5 2.239 5 5z" fill="#f5f5f5"/><g fill="#2b597f"><path d="m318 136.015h-139c-4.143 0-7.5-3.358-7.5-7.5s3.357-7.5 7.5-7.5h139c4.143 0 7.5 3.358 7.5 7.5s-3.357 7.5-7.5 7.5z"/><path d="m363 238.015h-229c-4.143 0-7.5-3.358-7.5-7.5s3.357-7.5 7.5-7.5h229c4.143 0 7.5 3.358 7.5 7.5s-3.357 7.5-7.5 7.5z"/><path d="m194.505 186.686h-60.451c-4.143 0-7.5-3.358-7.5-7.5s3.357-7.5 7.5-7.5h60.451c4.143 0 7.5 3.358 7.5 7.5s-3.358 7.5-7.5 7.5z"/><path d="m362.946 186.686h-128.532c-4.143 0-7.5-3.358-7.5-7.5s3.357-7.5 7.5-7.5h128.532c4.143 0 7.5 3.358 7.5 7.5s-3.357 7.5-7.5 7.5z"/></g><path d="m427 228.735v14.22l-136.73 77.03-3.55-2.78c-21.6-16.88-51.9-16.97-73.61-.21l-3.43 2.65-139.68-78.03v-14.18l138.56 67.41c12.19-8 26.62-12.36 41.22-12.36 14.79 0 29.37 4.46 41.64 12.64z" fill="#e6e6e6"/><path d="m497 198.515v268c0 .78-.09 1.54-.26 2.27-.03.13-.06.26-.1.39-.05.18-.1.36-.16.54-.06.15-.11.3-.17.45-.03.09-.07.18-.11.27-.1.23-.2.45-.32.67-.02.05-.04.09-.07.13-.25.47-.54.92-.87 1.34-.05.08-.11.16-.18.24-.02.03-.05.06-.08.09-.16.19-.32.38-.5.56-.15.16-.31.31-.47.46l-.01.01-125.76-80.45-73.95-75.59-3.72-2.91 25.45-14.34 111.28-62.69z" fill="#fad207"/><path d="m209.68 314.645-3.76 2.9-75.41 75.94-127.19 80.47c-.17-.16-.34-.32-.5-.49-1.75-1.8-2.82-4.25-2.82-6.95v-269l70 39.1 100.14 55.94 12.41 6.93z" fill="#fad207"/><path d="m209.68 314.645-3.76 2.9-75.41 75.94-127.19 80.47c-.17-.16-.34-.32-.5-.49-1.75-1.8-2.82-4.25-2.82-6.95v-.38l182.55-166.65z" fill="#faa515"/><path d="m497 466.135v.38c0 .78-.09 1.54-.26 2.27-.03.13-.06.26-.1.39-.05.18-.1.36-.16.54-.06.15-.11.3-.17.45-.03.09-.07.18-.11.27-.1.23-.2.45-.32.67-.02.05-.04.09-.07.13-.25.47-.54.92-.87 1.34-.05.08-.11.16-.18.24-.02.03-.05.06-.08.09-.16.19-.32.38-.5.56-.15.16-.31.31-.47.46l-.01.01c-.01.01-.01.01-.02.02l-127.19-80.47-75.41-75.94-3.76-2.9 1.47-.82 1.48 1.16 25.45-14.34z" fill="#faa515"/><path d="m493.7 473.935c-.01.01-.01.01-.02.02-1.77 1.59-4.11 2.56-6.68 2.56h-477c-2.42 0-4.63-.86-6.36-2.29-.11-.08-.22-.17-.32-.27l117.19-90.47 85.41-65.94 3.76-2.9 3.43-2.65c10.45-8.06 22.89-12.23 35.39-12.5 13.47-.28 27.02 3.95 38.22 12.71l2.07 1.62 1.48 1.16 3.72 2.91 83.95 65.59z" fill="#fad207"/></g></svg>