<svg id="Capa_1" enable-background="new 0 0 512 512" height="512" viewBox="0 0 512 512" width="512" xmlns="http://www.w3.org/2000/svg"><g><g><path d="m495.089 480.548h-478.178c-9.34 0-16.911-7.571-16.911-16.911v-296.003c0-9.34 7.571-16.911 16.911-16.911h478.177c9.34 0 16.911 7.571 16.911 16.911v296.003c.001 9.34-7.57 16.911-16.91 16.911z" fill="#fef0ae"/><path d="m512 167.626v296.004c0 9.339-7.569 16.918-16.908 16.918h-20.528c9.339 0 16.918-7.58 16.918-16.918v-296.004c0-9.338-7.58-16.908-16.918-16.908h20.528c9.339 0 16.908 7.57 16.908 16.908z" fill="#fee97d"/><g><path d="m16.096 480.548 223.981-186.666c9.68-6.304 22.167-6.304 31.847 0l223.981 186.666z" fill="#fee45a"/><path d="m495.903 480.552h-31.603l-216.68-180.582c-3.084-1.999-6.442-3.368-9.922-4.099l2.384-1.989c9.679-6.3 22.158-6.3 31.837 0z" fill="#fed402"/><path d="m16.096 150.723 223.981 186.666c9.68 6.304 22.167 6.304 31.847 0l223.981-186.666z" fill="#fac600"/><path d="m495.903 150.723h-31.603l-216.68 180.582c-3.084 1.999-6.442 3.368-9.922 4.099l2.384 1.989c9.679 6.3 22.158 6.3 31.837 0z" fill="#e8b800"/></g></g><g><circle cx="255.998" cy="120.241" fill="#57be92" r="88.793"/><path d="m344.795 120.239c0 49.042-39.753 88.794-88.794 88.794-21.553 0-41.303-7.663-56.68-20.431 11.142 5.029 23.494 7.827 36.513 7.827 49.042 0 88.794-39.753 88.794-88.794 0-27.502-12.503-52.079-32.115-68.363 30.83 13.927 52.282 44.932 52.282 80.967z" fill="#09a76d"/><g><path d="m301.959 84.267c-6.952-6.414-17.787-5.977-24.201.975l-29.502 31.979c-1.271 1.378-3.447 1.378-4.718 0l-9.227-10.002c-6.429-6.969-17.291-7.407-24.26-.978-6.945 6.407-7.407 17.222-1.034 24.198l21.61 23.655c8.087 8.852 22.017 8.886 30.147.074l42.16-45.7c6.414-6.953 5.977-17.788-.975-24.201z" fill="#f9f7f8"/><path d="m302.938 108.467-42.16 45.702c-8.129 8.81-22.069 8.772-30.148-.076l-1.361-1.487c5.458-.025 10.902-2.218 14.936-6.592l42.16-45.702c5.294-5.735 5.924-14.104 2.067-20.469 4.764-.542 9.73.92 13.524 4.424 6.956 6.416 7.397 17.242.982 24.2z" fill="#efedef"/></g></g></g></svg>