<svg id="Capa_1" enable-background="new 0 0 507 507" height="512" viewBox="0 0 507 507" width="512" xmlns="http://www.w3.org/2000/svg"><g>
<path d="m95.108 124.608c-5.11 5.11-9.937 10.428-14.485 15.927l34.877 217.465 83.437 142.344c17.631 4.393 35.923 6.656 54.563 6.656l24-205-24-243c-59.833 0-116.084 23.3-158.392 65.608z" fill="#c07ca7"/>
<path d="m398.5 285-7.817-152.125-137.183-73.875v448c59.833 0 116.084-23.3 158.392-65.608 7.024-7.024 13.512-14.44 19.468-22.185z" fill="#9e387a"/>
<path d="m147.006 342.19 50.62-103.595-117.003-98.06c-33.105 40.027-51.123 89.859-51.123 142.465 0 59.833 23.3 116.084 65.608 158.392 29.128 29.128 64.865 49.244 103.829 58.952l-17.791-113.42z" fill="#ffea80"/>
<path d="m440.562 159.735-49.879-26.861-102.183 154.126 56 108 86.86 24.207c29.922-38.907 46.14-86.308 46.14-136.207 0-44.038-12.773-86.662-36.938-123.265z" fill="#fc6"/>
<path d="m275.172 28.139c-22.902 20.107-35.515 48.441-35.515 79.781 0 27.331 17.185 62.248 51.079 103.781 24.236 29.7 48.131 51.882 49.137 52.812l10.185 9.419 38.442-141.932-38.443-132c-27.223 0-54.517 10.256-74.885 28.139z" fill="#e63950"/>
<path d="m424.942 28.139c-20.368-17.883-47.662-28.139-74.885-28.139v273.932l10.185-9.419c1.005-.93 24.901-23.112 49.137-52.812 33.894-41.533 51.079-76.45 51.079-103.781-.001-31.34-12.614-59.674-35.516-79.781z" fill="#ae2538"/>
<path d="m303.257 110.4c0 25.806 20.994 46.8 46.8 46.8l9.443-45.2-9.443-48.4c-25.806 0-46.8 20.994-46.8 46.8z" fill="#f0f7ff"/>
<path d="m350.057 63.6v93.6c25.806 0 46.8-20.995 46.8-46.8s-20.994-46.8-46.8-46.8z" fill="#d6e8fd"/></g></svg>