<?xml version="1.0"?>
<svg xmlns="http://www.w3.org/2000/svg" id="Layer_1" data-name="Layer 1" viewBox="0 0 512 512" width="512" height="512"><title>Add Photo</title><path d="M399.27,260.19a85.5,85.5,0,1,1-73.01,84.59A85.563,85.563,0,0,1,399.27,260.19Z" style="fill:#6e0246"/><path d="M463.74,121.72V276.9a85.6,85.6,0,0,0-64.47-16.71l-69.53-49.25-94.35,92.74-.04-.04L125.34,250.03,14.75,314.17V121.72a40,40,0,0,1,40-40H423.74A40,40,0,0,1,463.74,121.72Z" style="fill:#ae44d5"/><path d="M329.74,210.94l69.53,49.25a85.5,85.5,0,0,0-50.28,142.64H134.5l100.89-99.15Z" style="fill:#a363bb"/><path d="M215.26,151.74a35.185,35.185,0,1,1-35.19,35.18A35.179,35.179,0,0,1,215.26,151.74Z" style="fill:#00efd1"/><path d="M235.39,303.68,134.5,402.83H54.75a40,40,0,0,1-40-40V314.17l110.59-64.14,110.01,53.61Z" style="fill:#00acea"/><path d="M454,338H419V303a8,8,0,0,0-16,0v35H369a8,8,0,0,0,0,16h34v34a8,8,0,0,0,16,0V354h35a8,8,0,0,0,0-16Z" style="fill:#fedb41"/></svg>
