<?xml version="1.0" encoding="iso-8859-1"?>
<!-- Generator: Adobe Illustrator 21.0.0, SVG Export Plug-In . SVG Version: 6.00 Build 0)  -->
<svg xmlns="http://www.w3.org/2000/svg" xmlns:xlink="http://www.w3.org/1999/xlink" version="1.1" id="Capa_1" x="0px" y="0px" viewBox="0 0 512 512" style="enable-background:new 0 0 512 512;" xml:space="preserve" width="512" height="512">
<g>
	<g>
		<polygon style="fill:#ae44d5;" points="428.654,35.967 0,35.967 0,387.693 309.418,387.693 428.654,274.777   "/>
		<polygon style="fill:#a363bb;" points="428.654,35.967 209.454,35.967 209.454,387.693 309.418,387.693 428.654,274.777   "/>
		<g>
			<rect x="64.714" y="102.375" style="fill:#FE5957;" width="300.567" height="158.075"/>
			<rect x="209.461" y="102.375" style="fill:#FC1D5A;" width="155.82" height="220.639"/>
			<polygon style="fill:#F9B10D;" points="213.399,310.617 213.399,225.028 142.385,156.676 64.714,210.173 64.714,310.617    "/>
			<polygon style="fill:#FFDA2D;" points="268.659,168.208 64.714,299.657 64.714,323.014 365.281,323.014 365.281,256.064    "/>
			<polygon style="fill:#FDBF00;" points="268.659,168.208 209.454,206.367 209.454,323.014 365.281,323.014 365.281,256.064    "/>
		</g>
		<g>
			<g>
				<path style="fill:#FC1D5A;" d="M403.552,259.138c-59.798,0-108.447,48.649-108.447,108.447      c0,59.798,48.649,108.448,108.447,108.448c59.798,0,108.448-48.649,108.448-108.448      C512,307.788,463.351,259.138,403.552,259.138z"/>
				<path style="fill:#DD0057;" d="M403.552,259.138v216.895c59.798,0,108.448-48.649,108.448-108.448      C512,307.788,463.351,259.138,403.552,259.138z"/>
			</g>
			<polygon style="fill:#FFFFFF;" points="444.167,352.586 418.396,352.586 418.396,326.815 388.396,326.815 388.396,352.586      362.625,352.586 362.625,382.586 388.396,382.586 388.396,408.357 418.396,408.357 418.396,382.586 444.167,382.586    "/>
			<polygon style="fill:#E9EDF5;" points="418.396,352.586 418.396,326.815 403.206,326.815 403.206,408.357 418.396,408.357      418.396,382.586 444.167,382.586 444.167,352.586    "/>
		</g>
	</g>
	<g>
		<path style="fill:#FFFFFF;" d="M209.461,163.452c7.846,0,15.363-6.899,15-15c-0.364-8.127-6.591-15-15-15    c-7.846,0-15.363,6.899-15,15C194.825,156.579,201.052,163.452,209.461,163.452L209.461,163.452z"/>
	</g>
	<g>
		<path style="fill:#E9EDF5;" d="M209.461,163.452c7.846,0,15.363-6.899,15-15c-0.364-8.127-6.591-15-15-15V163.452L209.461,163.452    z"/>
	</g>
</g>















</svg>
